<svg xmlns="http://www.w3.org/2000/svg" viewBox="0 0 960 220" font-family="-apple-system, Segoe UI, Helvetica, Arial, sans-serif" font-size="13">
  <defs>
    <marker id="arrow2" viewBox="0 0 10 10" refX="9" refY="5" markerWidth="7" markerHeight="7" orient="auto-start-reverse">
      <path d="M0,0 L10,5 L0,10 z" fill="#334155"/>
    </marker>
  </defs>

  <rect x="0" y="0" width="960" height="220" fill="#ffffff"/>

  <!-- Step 1 -->
  <g>
    <rect x="20" y="50" width="160" height="110" rx="12" fill="#eff6ff" stroke="#1d4ed8" stroke-width="1.5"/>
    <circle cx="45" cy="75" r="16" fill="#1d4ed8"/>
    <text x="45" y="80" text-anchor="middle" fill="#ffffff" font-weight="700">1</text>
    <text x="100" y="105" text-anchor="middle" font-weight="600" fill="#1e3a8a">Evidence variant</text>
    <text x="100" y="125" text-anchor="middle" font-size="11" fill="#1e40af">add to mod.rs</text>
    <text x="100" y="142" text-anchor="middle" font-size="11" fill="#1e40af">typed, not freeform</text>
  </g>

  <!-- Step 2 -->
  <g>
    <rect x="210" y="50" width="160" height="110" rx="12" fill="#ecfeff" stroke="#0891b2" stroke-width="1.5"/>
    <circle cx="235" cy="75" r="16" fill="#0891b2"/>
    <text x="235" y="80" text-anchor="middle" fill="#ffffff" font-weight="700">2</text>
    <text x="290" y="105" text-anchor="middle" font-weight="600" fill="#164e63">Analyzer file</text>
    <text x="290" y="125" text-anchor="middle" font-size="11" fill="#155e75">impl Analyzer trait</text>
    <text x="290" y="142" text-anchor="middle" font-size="11" fill="#155e75">in diagnostics/</text>
  </g>

  <!-- Step 3 -->
  <g>
    <rect x="400" y="50" width="160" height="110" rx="12" fill="#ecfdf5" stroke="#059669" stroke-width="1.5"/>
    <circle cx="425" cy="75" r="16" fill="#059669"/>
    <text x="425" y="80" text-anchor="middle" fill="#ffffff" font-weight="700">3</text>
    <text x="480" y="105" text-anchor="middle" font-weight="600" fill="#064e3b">Register</text>
    <text x="480" y="125" text-anchor="middle" font-size="11" fill="#065f46">create_analyzers()</text>
    <text x="480" y="142" text-anchor="middle" font-size="11" fill="#065f46">in mod.rs</text>
  </g>

  <!-- Step 4 -->
  <g>
    <rect x="590" y="50" width="160" height="110" rx="12" fill="#fefce8" stroke="#ca8a04" stroke-width="1.5"/>
    <circle cx="615" cy="75" r="16" fill="#ca8a04"/>
    <text x="615" y="80" text-anchor="middle" fill="#ffffff" font-weight="700">4</text>
    <text x="670" y="102" text-anchor="middle" font-weight="600" fill="#713f12">Tests</text>
    <text x="670" y="120" text-anchor="middle" font-size="11" fill="#854d0e">no-false-positives,</text>
    <text x="670" y="134" text-anchor="middle" font-size="11" fill="#854d0e">fixture, snapshot,</text>
    <text x="670" y="148" text-anchor="middle" font-size="11" fill="#854d0e">missing fields</text>
  </g>

  <!-- Step 5 -->
  <g>
    <rect x="780" y="50" width="160" height="110" rx="12" fill="#fef2f2" stroke="#dc2626" stroke-width="1.5"/>
    <circle cx="805" cy="75" r="16" fill="#dc2626"/>
    <text x="805" y="80" text-anchor="middle" fill="#ffffff" font-weight="700">5</text>
    <text x="860" y="102" text-anchor="middle" font-weight="600" fill="#7f1d1d">CI gates</text>
    <text x="860" y="120" text-anchor="middle" font-size="11" fill="#991b1b">check-analyzer.sh,</text>
    <text x="860" y="134" text-anchor="middle" font-size="11" fill="#991b1b">cargo test,</text>
    <text x="860" y="148" text-anchor="middle" font-size="11" fill="#991b1b">cargo bench</text>
  </g>

  <!-- Connectors -->
  <line x1="180" y1="105" x2="210" y2="105" stroke="#334155" stroke-width="1.8" marker-end="url(#arrow2)"/>
  <line x1="370" y1="105" x2="400" y2="105" stroke="#334155" stroke-width="1.8" marker-end="url(#arrow2)"/>
  <line x1="560" y1="105" x2="590" y2="105" stroke="#334155" stroke-width="1.8" marker-end="url(#arrow2)"/>
  <line x1="750" y1="105" x2="780" y2="105" stroke="#334155" stroke-width="1.8" marker-end="url(#arrow2)"/>

  <text x="480" y="30" text-anchor="middle" font-weight="600" fill="#0f172a" font-size="14">Adding an analyzer — 5 steps</text>
  <text x="480" y="195" text-anchor="middle" font-size="12" fill="#64748b">Reference implementation: rc_loss.rs</text>
</svg>
